<?xml version="1.0" encoding="UTF-8"?>
<svg id="Capa_1" data-name="Capa 1" xmlns="http://www.w3.org/2000/svg" viewBox="0 0 938.25 246.6">
  <defs>
    <style>
      .cls-1 {
        fill: #070707;
      }
    </style>
  </defs>
  <path class="cls-1" d="M450.97,19.27h19.34c.51,0,.92-.47.92-1.05l-.03-17.97c0-.58-.41-1.05-.92-1.05h-19.31c-.51,0-.92.47-.92,1.05v17.97c0,.58.41,1.05.92,1.05Z"/>
  <path class="cls-1" d="M472.16,41.62h18.72c.51,0,.92-.47.92-1.05v-20.25c0-.58-.41-1.05-.92-1.05h-18.72c-.51,0-.92.47-.92,1.05v20.25c0,.58.41,1.05.92,1.05Z"/>
  <path class="cls-1" d="M511.39,83.17v-40.5c0-.58-.41-1.05-.92-1.05h-17.75c-.51,0-.92.47-.92,1.05v40.18c0,.58-.41,1.05-.92,1.05h-18.93c-.51,0-.92.47-.92,1.05v19.28c0,.58.41,1.05.92,1.05h18.76c.51,0,.92-.47.92-1.05v-18.96c0-.58.41-1.05.92-1.05h17.92c.51,0,.92-.47.92-1.05Z"/>
  <path class="cls-1" d="M735.28,147.3v-19.88c0-.58-.41-1.04-.91-1.05l-18.83-.18c-.51,0-.93.47-.93,1.05v20.06c0,.58.41,1.05.92,1.05h18.83c.51,0,.92-.47.92-1.05Z"/>
  <path class="cls-1" d="M857.79,211.42v-41.37c0-.58-.41-1.05-.92-1.05h-19.31c-.51,0-.92-.47-.92-1.05v-19.44c0-.58-.41-1.05-.92-1.05h-18.34c-.51,0-.92.47-.92,1.05l.18,41.08c0,.58.41,1.04.92,1.04h18.64c.51,0,.92.47.92,1.05v19.73c0,.58.41,1.05.92,1.05h18.83c.51,0,.92-.47.92-1.05Z"/>
  <path class="cls-1" d="M837.12,231.85v-18.31c0-.59-.42-1.06-.94-1.05l-18.36.31c-.5,0-.91.48-.91,1.05v18c0,.58.41,1.05.92,1.05h18.36c.51,0,.92-.47.92-1.05Z"/>
  <path class="cls-1" d="M734.57,103.19v-17.44c0-.58-.41-1.05-.92-1.05h-18.11c-.51,0-.92.47-.92,1.05v17.44c0,.58.41,1.05.92,1.05h18.11c.51,0,.92-.47.92-1.05Z"/>
  <path class="cls-1" d="M755.4,104.36h-19.92c-.51,0-.92.46-.92,1.04l-.15,19.93c0,.58.41,1.06.92,1.06h20.07c.51,0,.92-.47.92-1.05v-19.93c0-.58-.41-1.05-.92-1.05Z"/>
  <path class="cls-1" d="M756.63,83.65v-20.06c0-.58-.41-1.05-.92-1.05h-20.25c-.51,0-.92.47-.92,1.05v20.06c0,.58.41,1.05.92,1.05h20.25c.51,0,.92-.47.92-1.05Z"/>
  <path class="cls-1" d="M511.39,22.95v20.79c0,.58.41,1.05.92,1.05h18.48c.51,0,.92.47.92,1.05v39.74c0,.58.41,1.05.92,1.05l80.71.16c.51,0,.93-.47.92-1.06l-.12-20.12c0-.58-.41-1.04-.92-1.04l-19.93-.06c-.51,0-.92-.47-.92-1.05v-18.42c0-.58.41-1.05.92-1.05h19.91c.51,0,.92.47.92,1.05v18.48c0,.58.41,1.05.92,1.05h18.24c.51,0,.92.48.92,1.06v20.23c0,.58.41,1.05.92,1.05h78.54c.51,0,.92-.47.92-1.05v-20.24c0-.58.41-1.05.92-1.05h18.11c.51,0,.92-.47.92-1.05v-18.48c0-.58.41-1.05.92-1.05h19.91c.51,0,.92.47.92,1.05v18.48c0,.58.41,1.05.92,1.05h18.66c.51,0,.92.47.92,1.05v18.02c0,.58-.41,1.05-.92,1.05h-18.66c-.51,0-.92.47-.92,1.05v20.61c0,.58.41,1.05.92,1.05h17.36c.51,0,.92.47.92,1.05v20.23c0,.58.41,1.05.92,1.05h18.48c.51,0,.92.47.92,1.05v18.8c0,.58.41,1.05.92,1.05h18.75c.51,0,.92-.47.92-1.05v-18.8c0-.58.41-1.05.92-1.05h18.89c.51,0,.92-.47.92-1.05v-20.23c0-.58.41-1.05.92-1.05h37.83c.51,0,.92.47.92,1.05v42.56c0,.58.41,1.05.92,1.05h18.89c.51,0,.92.47.92,1.05v18.8c0,.58-.41,1.05-.92,1.05h-18.62c-.51,0-.92.47-.92,1.05v19.28c0,.58.41,1.05.92,1.05h18.89c.51,0,.92-.47.92-1.05v-18.49c0-.58.41-1.05.92-1.05h18.62c.51,0,.92.47.92,1.05v18.25c0,.58.41,1.05.92,1.05h18.2c.51,0,.92.47.92,1.05v.23s0,0,0,0c.45-.07.79-.51.79-1.03V-14.76c0-.58-.41-1.05-.92-1.05h-405.63c-.51,0-.92.47-.92,1.05V20.85c0,.58-.41,1.05-.92,1.05h-18.47c-.51,0-.92.47-.92,1.05ZM877.67,43.8h19.91c.51,0,.92.47.92,1.05v19.4c0,.58.41,1.05.92,1.05h18.53c.51,0,.92.47.92,1.05v20.15c0,.58-.41,1.05-.92,1.05h-19.91c-.51,0-.92-.47-.92-1.05v-19.4c0-.58-.41-1.05-.92-1.05h-18.53c-.51,0-.92-.47-.92-1.05v-20.15c0-.58.41-1.05.92-1.05Z"/>
</svg>